<?xml version="1.0" encoding="utf-8"?>
<!-- Generator: Adobe Illustrator 26.3.1, SVG Export Plug-In . SVG Version: 6.00 Build 0)  -->
<svg version="1.1" id="Layer_1" xmlns="http://www.w3.org/2000/svg" xmlns:xlink="http://www.w3.org/1999/xlink" x="0px" y="0px"
	 viewBox="0 0 4635.9 708.2" style="enable-background:new 0 0 4635.9 708.2;" xml:space="preserve">
<style type="text/css">
	.st0{fill:#969696;}
</style>
<path class="st0" d="M4610.9,550.5c-13.8,0-25,11.2-25,25s11.2,25,25,25s25-11.2,25-25l0,0C4635.9,561.7,4624.7,550.5,4610.9,550.5z
	 M4610.9,596.6c-11.6,0-21.1-9.4-21.1-21.1s9.4-21.1,21.1-21.1c11.6,0,21.1,9.4,21.1,21.1c0,0,0,0,0,0
	C4632,587.2,4622.5,596.6,4610.9,596.6z M4619,571.3c0-4.5-3.2-7.2-8-7.2h-8v22.8h3.9v-8.3h4.3l4.1,8.3h4.2l-4.5-9.1
	C4617.6,576.6,4619.2,574,4619,571.3z M4610.9,575.1h-3.9v-7.5h3.9c2.6,0,4.2,1.3,4.2,3.8S4613.5,575.1,4610.9,575.1L4610.9,575.1z
	 M373.3,409.4c0,54.1-43.8,98-97.9,98c-54.1,0-98-43.8-98-97.9c0-54.1,43.8-98,97.9-98c0,0,0,0,0,0
	C329.4,311.5,373.3,355.3,373.3,409.4z M925.5,409.4c0,54.1-43.8,98-97.9,98c-54.1,0-98-43.8-98-97.9c0-54.1,43.8-98,97.9-98
	c0,0,0,0,0,0C881.6,311.5,925.5,355.3,925.5,409.4z M903.1,108.2C803,39.9,682.1,0,551.4,0c-125.2-0.2-247.6,37.5-351,108.2H0
	l90.2,98.1C32.8,258.5,0.2,332.5,0.3,410c0,152.2,123.4,275.6,275.6,275.6c69.5,0.1,136.4-26.2,187.3-73.4l88.3,96.1l88.3-96.1
	c50.9,47.3,117.8,73.5,187.2,73.4c152.2,0,275.7-123.4,275.7-275.6c0.1-77.5-32.5-151.5-89.9-203.7l90.2-98.1L903.1,108.2z
	 M275.8,596.5c-103,0-186.5-83.5-186.5-186.5s83.5-186.5,186.5-186.5S462.3,307,462.3,410S378.8,596.5,275.8,596.5z M551.5,404.6
	c0-122.7-89.3-228-207-273.1c132.5-55.2,281.5-55.2,413.9,0C640.7,176.6,551.5,281.9,551.5,404.6z M1013.5,410
	c0,103-83.5,186.5-186.5,186.5S640.5,513,640.5,410S724,223.5,827,223.5S1013.5,307,1013.5,410L1013.5,410z M1667.6,236.5h43.4v85.8
	h-50.8c-39.1,0-64.2,19.2-64.2,58.3v215.8h-92.8V236.5h92.8V297C1604.2,254.2,1633.7,236.5,1667.6,236.5L1667.6,236.5z
	 M1853.9,150.9c0,31-25.1,56.1-56.1,56c-30.9,0-56-25.1-56-56c0-31.7,24.3-56.8,56.1-56.8S1854,119.2,1853.9,150.9L1853.9,150.9z
	 M1751.6,236.5h92.5v359.9h-92.5L1751.6,236.5z M2099,230.4c-39.4-0.2-77.8,12.6-109.2,36.5v-30.4h-92.5v465.6h92.5V566
	c31.4,23.9,69.8,36.7,109.2,36.5c102.8,0,186-83.3,186-186S2201.7,230.4,2099,230.4L2099,230.4z M2090.8,517.6
	c-55.8,0-101.1-45.3-101.1-101.1c0-55.8,45.3-101.1,101.1-101.1c55.8,0,101.1,45.3,101.1,101.1
	C2191.9,472.3,2146.6,517.6,2090.8,517.6L2090.8,517.6z M3981.4,482.8c0,69.4-59.5,119.8-141.6,119.8
	c-85.1,0-144.6-51.6-144.6-125.4v-2h90.5v2c0,30.8,22,51.5,54.8,51.5c31.4,0,52.5-15.3,52.5-38.1c0-21.6-14.6-33.7-53.9-44.6
	l-51.7-14.1c-54.3-14.7-85.5-50.1-85.5-97.1c0-60.4,57-104.3,135.6-104.3c79.3,0,132.6,43.9,132.6,109.2v2h-85.3v-2
	c0-22.2-20.8-39.5-47.3-39.5c-27.8,0-47.3,12.8-47.3,31.1c0,18.8,13.8,29.7,49.4,38.9l54,14.8
	C3966.2,404.3,3981.4,448.8,3981.4,482.8L3981.4,482.8z M2613.4,267c-31.4-23.9-69.8-36.7-109.3-36.5
	c-102.8,0-186.1,83.3-186.1,186.1s83.3,186,186.1,186c39.4,0.2,77.8-12.6,109.2-36.5v30.4h92.5V236.5h-92.5L2613.4,267z
	 M2613.4,416.5c0,55.8-45.3,101.1-101.1,101.1c-55.8,0-101.1-45.3-101.1-101.1c0-55.8,45.3-101.1,101.1-101.1
	C2568.1,315.5,2613.4,360.7,2613.4,416.5L2613.4,416.5z M3040.1,267c-31.4-23.9-69.8-36.7-109.2-36.5
	c-102.8,0-186.1,83.3-186.1,186.1s83.3,186,186.1,186c39.4,0.2,77.8-12.6,109.2-36.5v30.4h92.5V108.4h-92.5V267z M2939.1,517.6
	c-55.8,0-101.1-45.2-101.1-101.1c0-55.8,45.2-101.1,101.1-101.1c55.8,0,101.1,45.2,101.1,101.1c0,0,0,0,0,0
	C3040.1,472.3,2994.9,517.6,2939.1,517.6C2939,517.6,2939,517.6,2939.1,517.6L2939.1,517.6z M3562.4,236.6h92.5v359.9h-92.5V236.6z
	 M3664.7,151c0,31-25.1,56.1-56.1,56.1s-56.1-25.1-56.1-56.1l0,0c0-31.7,24.3-56.8,56.1-56.8S3664.7,119.2,3664.7,151L3664.7,151z
	 M4195.4,230.5c-102.7,0-186,83.3-186,186.1s83.3,186,186,186c102.8,0,186-83.3,186-186S4298.1,230.4,4195.4,230.5L4195.4,230.5z
	 M4195.4,517.6c-55.8,0-101.1-45.3-101.1-101.1s45.3-101.1,101.1-101.1c55.8,0,101.1,45.3,101.1,101.1c0,0,0,0,0,0
	C4296.5,472.4,4251.2,517.6,4195.4,517.6C4195.4,517.6,4195.4,517.6,4195.4,517.6L4195.4,517.6z M1548.7,191h-131.4v405.5H1325V191
	h-131.4v-82.6h355L1548.7,191z M3426.4,236.5h97.2l-124.2,359.9h-111.3l-123.5-359.9h97.2l82.3,261.4L3426.4,236.5z M4588.6,236.5
	h43.4v85.8h-50.8c-39.1,0-64.2,19.2-64.2,58.3v215.8h-92.8V236.5h92.8V297C4525.2,254.2,4554.7,236.5,4588.6,236.5L4588.6,236.5z"/>
</svg>
